<svg width="89" height="32" viewBox="0 0 89 32" fill="none" xmlns="http://www.w3.org/2000/svg">
<path d="M4.57235 30.0723H0.0318297C0.214492 31.1663 1.16141 32 2.30209 32C3.44277 32 4.38969 31.1663 4.57235 30.0723Z" fill="#2D2D2D"/>
<path d="M0 12.3373V29.6867C0 28.4092 1.03068 27.3735 2.30209 27.3735C3.5735 27.3735 4.60418 28.4092 4.60418 29.6867V20.5719C1.84324 18.8797 0 15.8248 0 12.3373Z" fill="#2D2D2D"/>
<path d="M2.30209 27.3735C1.03068 27.3735 0 28.4092 0 29.6867C0 29.8181 0.0108961 29.9469 0.0318297 30.0723H4.57235C4.59328 29.9469 4.60418 29.8181 4.60418 29.6867C4.60418 28.4092 3.5735 27.3735 2.30209 27.3735Z" fill="#2D2D2D"/>
<path d="M4.2205 12.3373H0C0 15.8248 1.84324 18.8797 4.60418 20.5719V14.2685C4.35701 13.6741 4.2205 13.0218 4.2205 12.3373Z" fill="#2D2D2D"/>
<path d="M9.59204 2.6988C4.2945 2.6988 0 7.01412 0 12.3373H4.2205C4.2205 9.56927 6.45364 7.3253 9.20836 7.3253C11.9631 7.3253 14.1962 9.56927 14.1962 12.3373C14.1962 15.1054 11.9631 17.3494 9.20836 17.3494C7.13474 17.3494 5.35667 16.0779 4.60418 14.2685V20.5719C6.05751 21.4627 7.76513 21.9759 9.59204 21.9759C12.5485 21.9759 15.1925 20.6319 16.9521 18.5187C17.0384 18.3477 17.1359 18.1833 17.2436 18.0265C17.3385 17.8234 17.4505 17.6299 17.5778 17.4479C17.7495 17.0714 17.9862 16.7311 18.2735 16.4415C18.8576 15.1963 19.1841 13.8052 19.1841 12.3373C19.1841 10.8695 18.8576 9.47836 18.2735 8.23315C17.9862 7.94358 17.7495 7.60327 17.5778 7.22675C17.4505 7.04482 17.3385 6.85134 17.2436 6.64818C17.1359 6.49142 17.0384 6.32702 16.9521 6.15595C15.1925 4.04281 12.5485 2.6988 9.59204 2.6988Z" fill="#2D2D2D"/>
<path d="M19.1841 12.3373C19.1841 13.8052 18.8576 15.1963 18.2735 16.4415C18.8987 15.8115 19.7635 15.4217 20.7188 15.4217C21.6742 15.4217 22.5389 15.8115 23.1641 16.4415C22.58 15.1963 22.2535 13.8052 22.2535 12.3373C22.2535 10.8695 22.58 9.47836 23.1641 8.23315C22.5389 8.86317 21.6742 9.25301 20.7188 9.25301C19.7635 9.25301 18.8987 8.86317 18.2735 8.23315C18.8576 9.47836 19.1841 10.8695 19.1841 12.3373Z" fill="#2D2D2D"/>
<path fill-rule="evenodd" clip-rule="evenodd" d="M31.8456 21.9759C37.1431 21.9759 41.4376 17.6606 41.4376 12.3373C41.4376 7.01412 37.1431 2.6988 31.8456 2.6988C28.8891 2.6988 26.2451 4.0428 24.4856 6.15595C24.3992 6.32702 24.3017 6.49142 24.194 6.64818C24.0991 6.85134 23.9871 7.04482 23.8598 7.22675C23.6882 7.60327 23.4514 7.94358 23.1641 8.23315C22.58 9.47836 22.2535 10.8695 22.2535 12.3373C22.2535 13.8052 22.58 15.1963 23.1641 16.4415C23.4514 16.7311 23.6882 17.0714 23.8598 17.4479C23.9871 17.6299 24.0991 17.8234 24.194 18.0265C24.3017 18.1833 24.3992 18.3477 24.4856 18.5188C26.2451 20.6319 28.8891 21.9759 31.8456 21.9759ZM32.2293 17.3494C34.984 17.3494 37.2171 15.1054 37.2171 12.3373C37.2171 9.56927 34.984 7.3253 32.2293 7.3253C29.4745 7.3253 27.2414 9.56927 27.2414 12.3373C27.2414 15.1054 29.4745 17.3494 32.2293 17.3494Z" fill="#2D2D2D"/>
<path d="M49.2409 4.04815L49.1129 20.4337C49.1129 20.4337 48.9211 21.9759 47.0027 21.9759C44.8945 21.9759 44.8945 20.4337 44.8945 20.4337V4.04815C45.4679 2.89153 46.3619 2.69875 47.0027 2.69875C47.6868 2.69875 48.5374 2.69875 49.2409 4.04815Z" fill="#2D2D2D"/>
<path d="M58.2574 20.4337C58.2574 20.4337 58.1294 21.9759 56.211 21.9759C54.2926 21.9759 53.911 20.4337 53.911 20.4337V4.04815C53.911 4.04815 54.2926 2.69875 56.0192 2.69875C57.9376 2.69875 58.2574 4.04815 58.2574 4.04815V11.0573L64.5927 3.46984C64.5927 3.46984 64.8439 2.69873 67.146 2.69873C68.8725 2.69873 69.2562 4.04815 69.2562 4.04815L62.6037 12.3897L69.6399 20.0481C69.6399 20.0481 69.5523 21.8262 67.9133 21.9759C65.8031 22.1686 65.0357 21.3975 65.0357 21.3975L58.2574 13.7222V20.4337Z" fill="#2D2D2D"/>
<path d="M69.8474 12.3373C69.8474 7.04459 73.7149 2.71418 78.982 2.71418C81.3026 2.71418 83.4389 3.93558 84.6544 5.37905V4.2409C84.6544 4.2409 84.7953 2.71418 86.7137 2.71418C88.7367 2.71418 89.0007 4.2409 89.0007 4.2409V20.4337C89.0007 20.4337 88.824 21.9604 86.9056 21.9604C84.7941 21.9604 84.6544 20.4337 84.6544 20.4337V19.2215C83.4389 20.739 81.3026 21.9604 78.982 21.9604C73.7149 21.9604 69.8474 17.63 69.8474 12.3373ZM79.424 7.0816C76.551 7.0816 74.1937 9.45037 74.1937 12.3373C74.1937 15.2243 76.551 17.593 79.424 17.593C82.2971 17.593 84.6544 15.2243 84.6544 12.3373C84.6544 9.45037 82.2971 7.0816 79.424 7.0816Z" fill="#2D2D2D"/>
<path d="M58.2574 20.4337C58.2574 20.4337 58.1294 21.9759 56.211 21.9759C54.2926 21.9759 53.911 20.4337 53.911 20.4337V4.04815C53.911 4.04815 54.2926 2.69875 56.0192 2.69875C57.9376 2.69875 58.2574 4.04815 58.2574 4.04815V11.0573L64.5927 3.46984C64.5927 3.46984 64.8439 2.69873 67.146 2.69873C68.8725 2.69873 69.2562 4.04815 69.2562 4.04815L62.6037 12.3897L69.6399 20.0481C69.6399 20.0481 69.5523 21.8262 67.9133 21.9759C65.8031 22.1686 65.0357 21.3975 65.0357 21.3975L58.2574 13.7222V20.4337Z" fill="#2D2D2D"/>
</svg>
